# xmcd
# Track frame offsets:
# 150
# 13072
# 26167
# 36345
# 47687
# 60487
# 73005
# 93910
# 109277
# 122515
# 133392
# 150602
# 166802
# 185397
# 200447
# 213475
# 224407
#
# Disc length: 3150 seconds
# Revision: 0
# Processed by: cddbd v1.4PL0 Copyright (c) Steve Scherf et al.
# Submitted via: VisiTrax 2.9.5.181 - For more info visit www.synapsa.com
#
DISCID=f80c4c11
DTITLE=Various Artist - Country Collection Disc 4
DYEAR=1999
DGENRE=Country
TTITLE0=Charley Pride - Crystal Chandeliers
TTITLE1=Charlie Rich - Spanish Eyes
TTITLE2=Slim Whitman - The Twelfth of Never
TTITLE3=Jim Reeves - Moon River
TTITLE4=Jim Reeves - Roses are Red (My Love)
TTITLE5=Willie Nelson - Everybody's Talkin'
TTITLE6=Willie Nelson - Bridge Over Troubled Water
TTITLE7=Tammy Wynette - You Needed Me
TTITLE8=Floyd Cramer, His Piano and Orchestra - When a Man Loves a Woman
TTITLE9=Billie Jo Spears - Misty Blue
TTITLE10=Merle Haggarrd - It's All In The Game
TTITLE11=Willie Nelson - Blue Skies
TTITLE12=Kenny Rogers - My Funny Valentine
TTITLE13=Kenny Rogers - Misty
TTITLE14=Billie Jo Spears - What The World Needs Now Is Love
TTITLE15=Floyd Cramer, His Piano and Orchestra - Strangers In The Night from '
TTITLE15=A Man Could Get Killed'
TTITLE16=Kenny Rogers - Love Is A Many Splendoured Thing
EXTD=Data by Phil Taylor - Island of Jersey
EXTT0=
EXTT1=Bert Kaempfert, Snyder and Singleton
EXTT2=
EXTT3=Henry Mancini and Jimmy Mercer.  Written for the film Breakfast at Tiffa
EXTT3=ny's - for Audrey Hepburn
EXTT4=
EXTT5=
EXTT6=Paul Simon
EXTT7=
EXTT8=
EXTT9=Bob Montgomery
EXTT10=
EXTT11=Irving Berlin
EXTT12=Richard Rogers and Lorenz Hart
EXTT13=
EXTT14=Burt Bacharach and Hal David
EXTT15=Bert Kaempfert, Snyder and Singleton
EXTT16=
PLAYORDER=
